<!--?xml version="1.0" encoding="utf-8"?-->
<!-- Generator: Adobe Illustrator 19.0.0, SVG Export Plug-In . SVG Version: 6.00 Build 0)  -->
<svg version="1.1" id="Layer_1" xmlns="http://www.w3.org/2000/svg" xmlns:xlink="http://www.w3.org/1999/xlink" x="0px" y="0px" viewBox="0 0 800 250" xml:space="preserve">
<style type="text/css">
	.st0{fill:none;stroke:#F2784B;stroke-width:3;stroke-miterlimit:10;}
	.st1{fill:none;stroke:#F2784B;stroke-miterlimit:10;}
	.st2{fill:none;stroke:#F2784B;stroke-width:2;stroke-miterlimit:10;}
</style>
<g id="XMLID_2_">
	<path id="XMLID_21_" class="st0 uJJayZZd_0" d="M55.4,183.5l1.3-13.4l3.5-53.3l1.9-32.4c1.4,0,2.7,0.1,3.9,0.1c1.2,0,2.5,0,3.9-0.1l2.7,9.8
		c0.8,2.7,2.4,8.1,4.8,16.3l16,53.4l4.4,14.1l32-84.8c0.7-2,1.7-4.9,3-8.7c1.4,0,2.7,0.1,3.9,0.1c1.3,0,2.6,0,3.9-0.1l-0.6,42
		c-0.1,9.5-0.1,16.5-0.1,21.1c0,15.1,0.1,27.1,0.4,35.9c-1.1,0-2-0.1-2.9-0.1c-0.9,0-1.8,0-2.9,0.1l1-63.9
		c0.1-7.7,0.2-14.5,0.2-20.4v-9.6l-10.3,27.1l-24.6,66.8c-1,0-2.1-0.1-3.2-0.1c-1.2,0-2.3,0-3.2,0.1L67.9,95.9l-1.9-5.8l-0.7,8.5
		c-0.2,2.4-0.4,7.2-0.9,14.4l-3.2,53.4c-0.1,2.3-0.2,4.6-0.3,6.9c-0.1,2.3-0.1,5.7-0.2,10.2c-1,0-1.9-0.1-2.7-0.1
		C57.3,183.4,56.4,183.4,55.4,183.5z"></path>
	<path id="XMLID_23_" class="st0 uJJayZZd_1" d="M152.5,183.5l1.3-13.4l3.5-53.3l1.9-32.4c1.4,0,2.7,0.1,3.9,0.1c1.2,0,2.5,0,3.9-0.1l2.7,9.8
		c0.8,2.7,2.4,8.1,4.8,16.3l16,53.4l4.4,14.1l32-84.8c0.7-2,1.7-4.9,3-8.7c1.4,0,2.7,0.1,3.9,0.1c1.3,0,2.6,0,3.9-0.1l-0.6,42
		c-0.1,9.5-0.1,16.5-0.1,21.1c0,15.1,0.1,27.1,0.4,35.9c-1.1,0-2-0.1-2.9-0.1c-0.9,0-1.8,0-2.9,0.1l1-63.9
		c0.1-7.7,0.2-14.5,0.2-20.4v-9.6l-10.3,27.1L198,183.5c-1,0-2.1-0.1-3.2-0.1c-1.2,0-2.3,0-3.2,0.1l-26.5-87.5l-1.9-5.8l-0.7,8.5
		c-0.2,2.4-0.4,7.2-0.9,14.4l-3.2,53.4c-0.1,2.3-0.2,4.6-0.3,6.9c-0.1,2.3-0.1,5.7-0.2,10.2c-1,0-1.9-0.1-2.7-0.1
		C154.4,183.4,153.6,183.4,152.5,183.5z"></path>
	<path id="XMLID_25_" class="st0 uJJayZZd_2" d="M240.3,183.5l20.4-47.7l17.9-42.3l3.7-9.1c1,0,2.1,0.1,3.3,0.1c1.2,0,2.3,0,3.3-0.1l11.8,39.9
		l17.9,59.2c-1.1,0-2-0.1-2.7-0.1c-0.8,0-1.7,0-2.7,0.1c-1.1-4.6-3.3-12.3-6.4-23.1c-3.1-10.7-5.6-18.8-7.3-24.3H265l-19.1,47.3
		c-1,0-1.9-0.1-2.8-0.1C242.2,183.4,241.3,183.4,240.3,183.5z M266.9,131.4H298l-12.9-42.6L266.9,131.4z"></path>
</g>
<g id="XMLID_5_">
	<path id="XMLID_6_" class="st1 uJJayZZd_3" d="M360.8,127.9c6.4,0,11.1,0.1,14.1,0.1l9.2-0.1l-0.9,22.9l-0.6,28c-5.5,1.8-10.4,3.2-14.8,4
		c-4.4,0.8-8.1,1.2-11.2,1.2c-5.3,0-10.5-1-15.3-3.1c-4.9-2.1-9-5.2-12.5-9.4c-3.5-4.2-6-9.4-7.7-15.6c-1.6-6.2-2.5-12.8-2.5-19.8
		c0-8,1.1-15.6,3.2-22.8c2.1-7.2,5.1-13.2,8.9-17.9c3.8-4.7,8.1-8.2,13.1-10.3c4.9-2.1,10.3-3.2,16-3.2c3.2,0,6.5,0.3,9.8,0.8
		c3.3,0.5,7.3,1.5,11.8,2.9c0.1,2.5,0.2,4.7,0.4,6.7c-5-2.3-9.3-3.8-12.8-4.6c-3.5-0.8-6.8-1.2-9.9-1.2c-5.1,0-10,1.1-14.7,3.3
		c-4.7,2.2-8.6,5.6-11.9,10c-3.2,4.5-5.7,9.9-7.4,16.5c-1.7,6.5-2.5,13.3-2.5,20.2c0,6.5,0.7,12.6,2.2,18.2s3.7,10.2,6.7,13.8
		s6.6,6.3,10.9,8.2c4.3,1.9,9,2.9,14.1,2.9c1.7,0,3.7-0.1,5.7-0.4c2.1-0.3,4.1-0.6,6.2-1.1c2.1-0.5,3.8-0.9,5.1-1.4
		c1.3-0.5,3-1.1,5.2-2.1l1.3-42.3h-6.2c-1.7,0-3.4,0-5,0.1l-7.9,0.5c0.1-1.5,0.2-2.9,0.2-4.2V127.9z"></path>
	<path id="XMLID_8_" class="st1 uJJayZZd_4" d="M399.3,182.5l1.2-28.6l1.5-58.8l0.2-11.7c0.8,0,1.9,0.1,3.2,0.1c1.3,0,2.4,0,3.2-0.1
		c1.7,3.9,3.2,7.1,4.3,9.5c1.2,2.4,3.6,7.2,7.2,14.4l26.9,53.7c2.7,5.5,5.5,10.9,8.3,16.3l2.3-82.7l0.2-11.3c0.9,0,1.6,0.1,2.2,0.1
		c0.6,0,1.3,0,2.2-0.1l-1,22.8l-1.7,62l-0.2,14.3c-1.2,0-2.3-0.1-3.2-0.1s-1.9,0-3.1,0.1l-9.6-19.7L410,96.5l-3.9-7.3
		c-0.1,2.5-0.2,5-0.3,7.6l-1.9,68l-0.3,17.7c-0.9,0-1.6-0.1-2.2-0.1S400.2,182.4,399.3,182.5z"></path>
	<path id="XMLID_10_" class="st1 uJJayZZd_5" d="M477.2,182.5l1.2-29.1l1-43.6l0.2-15.1c0-4,0.1-7.8,0.1-11.3c0.9,0,1.7,0.1,2.4,0.1
		c0.7,0,1.5,0,2.4-0.1l-1,26.3l-1.2,54.1l-0.3,18.7c-0.9,0-1.7-0.1-2.4-0.1C478.8,182.4,478.1,182.4,477.2,182.5z"></path>
	<path id="XMLID_12_" class="st1 uJJayZZd_6" d="M513.6,182.5l0.8-18.1l2-76.6c-8.6,0-16.1,0.2-22.5,0.7c0.2-2,0.3-3.7,0.3-5.2
		c8.4,0,17.1,0.1,26.1,0.1l14.9-0.1h7.9c-0.2,1.9-0.3,3.7-0.3,5.2c-4.2-0.4-10.7-0.7-19.3-0.7h-3l-2.1,80c0,1.1-0.1,2.2-0.1,3.3
		v11.3c-0.9,0-1.7-0.1-2.4-0.1C515.3,182.4,514.5,182.4,513.6,182.5z"></path>
	<path id="XMLID_14_" class="st1 uJJayZZd_7" d="M552.5,83.4c0.9,0,1.7,0.1,2.4,0.1c0.7,0,1.5,0,2.4-0.1l-2.4,59.5l-0.1,5.4v1.2
		c0,5.8,0.5,10.6,1.6,14.3c1.1,3.7,2.8,6.8,5.2,9.2c2.4,2.4,5,4.1,7.9,5.1c2.8,0.9,6,1.4,9.3,1.4c3.2,0,6.3-0.5,9.3-1.4
		c2.2-0.7,4.3-1.7,6.2-3.1c1.5-1.1,2.9-2.5,4.1-4.2c1.2-1.7,2.3-3.6,3.1-5.8c0.9-2.2,1.5-4.4,1.9-6.8c0.7-4.6,1.2-10.3,1.4-17.1
		l1-29.8c0.3-11.2,0.5-20.5,0.5-28c0.9,0,1.7,0.1,2.3,0.1c0.6,0,1.4,0,2.3-0.1l-1.4,33.1l-0.9,29.1c-0.3,6.4-0.8,11.7-1.6,15.9
		c-0.5,2.5-1.2,4.9-2.1,7.2c-0.9,2.1-2,3.9-3.2,5.5c-1.4,1.8-3.2,3.5-5.2,4.9c-2.2,1.5-4.6,2.7-7.1,3.5c-3.4,1-6.8,1.5-10.4,1.5
		c-3.9,0-7.5-0.5-10.6-1.6c-2.8-0.9-5.4-2.4-7.7-4.4c-2.3-2-4.2-4.3-5.7-6.8c-1.2-2.1-2.2-4.8-2.9-8.1c-0.7-3.3-1.1-7.4-1.1-12.1
		c0-4.3,0.1-9.3,0.3-15l1.2-38.8C552.4,92.6,552.5,88,552.5,83.4z"></path>
	<path id="XMLID_16_" class="st1 uJJayZZd_8" d="M625.6,182.5l1.5-34.5l1.4-56.6c0-2.1,0.1-4.8,0.1-8.1l11.6,0.1l14.4-0.1
		c6.7,0,12.2,0.7,16.2,2.2c4.1,1.5,7.7,4.4,10.9,9c3.2,4.5,5.4,9.7,6.8,15.4c1.3,5.7,2,11.9,2,18.5c0,7.9-1,15.5-3.1,22.8
		s-5.1,13.5-9.1,18.5c-4,5-8.5,8.3-13.6,10.1c-5.1,1.7-10.6,2.6-16.5,2.6l-11.1-0.1L625.6,182.5z M630.1,177.9
		c6.2,0.1,11.1,0.2,14.6,0.2c3.5,0,7.2-0.2,10.9-0.7s7.1-1.4,10-2.6c2.9-1.3,5.8-3.6,8.6-6.9s5.1-7.1,6.9-11.2
		c1.8-4.1,3.1-8.7,4-13.7s1.3-10.1,1.3-15.2c0-4.9-0.4-9.7-1.3-14.2c-0.6-3.3-1.5-6.4-2.7-9.2c-1.4-3.2-2.9-6-4.7-8.2
		c-1.8-2.3-3.7-3.9-5.6-5.1c-2-1.1-4.4-1.9-7.3-2.4c-2.7-0.5-5.8-0.8-9.3-0.8H643l-10.1,0.1L630.1,177.9z"></path>
	<path id="XMLID_19_" class="st1 uJJayZZd_9" d="M703.1,182.5c0.7-13.1,1.3-30,1.8-50.8c0.5-20.7,0.8-36.8,0.8-48.3c7.8,0,15,0.1,21.9,0.1
		l19.1-0.1c-0.1,1.9-0.2,3.7-0.2,5.2l-4.2-0.5c-1.1-0.2-3-0.3-5.7-0.3c-2.7,0-5.3,0-7.9,0c-8.3,0-14.6,0-18.9,0.1l-1.1,41.7
		c5.3,0.1,10.1,0.2,14.5,0.2c5.2,0,11.7-0.1,19.4-0.2c-0.1,1.5-0.2,3-0.3,4.8l-19.8-0.2c-2.3,0-7,0.1-14.1,0.2l-1.1,43.6l15,0.1
		c5.9,0,10,0,12.3-0.1c2.3-0.1,5.4-0.3,9.4-0.5c-0.2,1.9-0.3,3.7-0.3,5.2c-8.4,0-14.5-0.1-18.4-0.1L703.1,182.5z"></path>
</g>
<path id="XMLID_4_" class="st2 uJJayZZd_10" d="M17,61L779,61"></path>
<path id="XMLID_3_" class="st2 uJJayZZd_11" d="M17,207L779,207"></path>
<style>.uJJayZZd_0{stroke-dasharray:815 817;stroke-dashoffset:816;animation:uJJayZZd_draw 3000ms ease-in-out 0ms forwards;}.uJJayZZd_1{stroke-dasharray:815 817;stroke-dashoffset:816;animation:uJJayZZd_draw 3000ms ease-in-out 0ms forwards;}.uJJayZZd_2{stroke-dasharray:486 488;stroke-dashoffset:487;animation:uJJayZZd_draw 3000ms ease-in-out 0ms forwards;}.uJJayZZd_3{stroke-dasharray:520 522;stroke-dashoffset:521;animation:uJJayZZd_draw 3000ms ease-in-out 0ms forwards;}.uJJayZZd_4{stroke-dasharray:617 619;stroke-dashoffset:618;animation:uJJayZZd_draw 3000ms ease-in-out 0ms forwards;}.uJJayZZd_5{stroke-dasharray:208 210;stroke-dashoffset:209;animation:uJJayZZd_draw 3000ms ease-in-out 0ms forwards;}.uJJayZZd_6{stroke-dasharray:299 301;stroke-dashoffset:300;animation:uJJayZZd_draw 3000ms ease-in-out 0ms forwards;}.uJJayZZd_7{stroke-dasharray:466 468;stroke-dashoffset:467;animation:uJJayZZd_draw 3000ms ease-in-out 0ms forwards;}.uJJayZZd_8{stroke-dasharray:553 555;stroke-dashoffset:554;animation:uJJayZZd_draw 3000ms ease-in-out 0ms forwards;}.uJJayZZd_9{stroke-dasharray:423 425;stroke-dashoffset:424;animation:uJJayZZd_draw 3000ms ease-in-out 0ms forwards;}.uJJayZZd_10{stroke-dasharray:762 764;stroke-dashoffset:763;animation:uJJayZZd_draw 3000ms ease-in-out 0ms forwards;}.uJJayZZd_11{stroke-dasharray:762 764;stroke-dashoffset:763;animation:uJJayZZd_draw 3000ms ease-in-out 0ms forwards;}@keyframes uJJayZZd_draw{100%{stroke-dashoffset:0;}}@keyframes uJJayZZd_fade{0%{stroke-opacity:1;}94.44444444444444%{stroke-opacity:1;}100%{stroke-opacity:0;}}</style></svg>
